<?xml version="1.0" encoding="utf-8"?>
<!-- Generator: Adobe Illustrator 16.0.0, SVG Export Plug-In . SVG Version: 6.00 Build 0)  -->
<!DOCTYPE svg PUBLIC "-//W3C//DTD SVG 1.1//EN" "http://www.w3.org/Graphics/SVG/1.1/DTD/svg11.dtd">
<svg version="1.1" id="Layer_1" xmlns="http://www.w3.org/2000/svg" xmlns:xlink="http://www.w3.org/1999/xlink" x="0px" y="0px"
	 width="32px" height="32px" viewBox="0 0 32 32" enable-background="new 0 0 32 32" xml:space="preserve">
<title>whatsapp</title>
<path fill="#FFFFFF" d="M27.281,4.65C24.287,1.65,20.307,0,16.062,0C7.324,0,0.212,7.112,0.212,15.856
	c0,2.794,0.731,5.525,2.119,7.925L0.081,32l8.406-2.206c2.319,1.263,4.925,1.931,7.575,1.931h0.006l0,0
	c8.739,0,15.856-7.113,15.856-15.855c0-4.238-1.65-8.219-4.645-11.219H27.281z M16.069,29.05L16.069,29.05
	c-2.369,0-4.688-0.637-6.713-1.837l-0.481-0.288L3.888,28.23l1.331-4.862l-0.313-0.5c-1.325-2.095-2.019-4.519-2.019-7.012
	c0-7.269,5.912-13.181,13.188-13.181c3.519,0,6.831,1.375,9.319,3.862c2.487,2.494,3.855,5.8,3.855,9.325
	C29.244,23.137,23.331,29.05,16.069,29.05z M23.294,19.175c-0.394-0.2-2.344-1.155-2.706-1.288c-0.361-0.132-0.625-0.199-0.895,0.2
	c-0.262,0.394-1.024,1.288-1.256,1.556c-0.23,0.263-0.461,0.301-0.855,0.101s-1.675-0.619-3.188-1.97
	c-1.175-1.049-1.975-2.35-2.206-2.743c-0.231-0.395-0.025-0.613,0.175-0.806c0.181-0.175,0.394-0.463,0.594-0.694
	c0.2-0.231,0.262-0.395,0.394-0.662c0.131-0.262,0.069-0.494-0.031-0.694c-0.1-0.2-0.894-2.15-1.219-2.944
	c-0.319-0.775-0.65-0.669-0.894-0.681c-0.231-0.012-0.494-0.012-0.756-0.012c-0.262,0-0.694,0.1-1.056,0.494
	c-0.363,0.394-1.387,1.356-1.387,3.306c0,1.95,1.419,3.831,1.619,4.1c0.2,0.262,2.794,4.269,6.769,5.981
	c0.944,0.406,1.681,0.65,2.256,0.837c0.949,0.3,1.813,0.256,2.494,0.156c0.762-0.113,2.344-0.956,2.674-1.881
	c0.332-0.925,0.332-1.72,0.231-1.882c-0.094-0.174-0.356-0.274-0.756-0.475L23.294,19.175z"/>
</svg>
